<?xml version="1.0" standalone="no"?>
<!DOCTYPE svg PUBLIC "-//W3C//DTD SVG 20010904//EN"
 "http://www.w3.org/TR/2001/REC-SVG-20010904/DTD/svg10.dtd">
<svg version="1.0" xmlns="http://www.w3.org/2000/svg"
 width="248.000000pt" height="220.000000pt" viewBox="0 0 248.000000 220.000000"
 preserveAspectRatio="xMidYMid meet">

<g transform="translate(0.000000,220.000000) scale(0.100000,-0.100000)"
fill="#000000" stroke="none">
<path d="M0 1100 l0 -1100 328 0 327 0 17 40 c19 47 68 80 119 80 42 0 63 -19
81 -75 l13 -40 79 -3 79 -3 -6 61 c-4 33 -4 60 0 60 3 0 24 -15 47 -33 112
-89 104 -87 315 -87 l189 0 31 35 c17 20 33 48 37 63 11 52 15 62 25 62 11 0
55 -86 64 -128 6 -30 9 -32 50 -32 l44 0 -10 32 c-5 18 -9 37 -9 42 0 14 30
-16 46 -46 8 -15 19 -28 25 -28 17 0 -34 82 -58 93 -13 6 -23 17 -23 24 0 11
10 9 43 -9 29 -16 48 -36 62 -65 l20 -42 73 -1 c39 0 72 2 72 5 0 3 -10 25
-21 50 -21 44 -71 91 -117 111 -22 9 -18 14 68 88 209 181 315 389 350 685 13
112 6 207 -25 361 -26 126 -47 188 -103 295 -60 114 -90 155 -188 251 -96 95
-163 144 -261 194 l-58 29 363 1 362 0 0 -187 c0 -104 2 -316 5 -473 2 -157 7
-537 11 -845 3 -308 8 -562 10 -564 2 -2 4 491 4 1097 l0 1102 -1240 0 -1240
0 0 -1100z m1438 1034 c192 -56 366 -179 466 -329 112 -168 175 -342 183 -507
l6 -107 -34 -6 c-19 -3 -54 -2 -79 4 -79 18 -88 10 -10 -10 82 -21 163 -50
157 -56 -2 -2 -35 4 -73 13 -134 31 -340 60 -536 75 -238 18 -504 0 -733 -51
-210 -46 -505 -177 -505 -225 0 -22 20 -28 45 -15 20 11 31 7 100 -35 95 -57
88 -59 222 77 53 53 112 105 130 113 70 34 240 57 455 62 l207 5 129 -105 129
-106 64 35 c159 87 206 105 261 105 29 0 89 -9 132 -21 44 -11 81 -20 84 -20
3 0 2 60 -1 133 -11 233 -80 437 -209 617 -82 113 -85 119 -24 57 133 -137
229 -330 265 -531 15 -84 14 -271 -3 -358 -45 -231 -158 -427 -340 -586 -93
-82 -111 -84 -25 -3 140 129 212 247 279 457 17 54 34 120 37 146 l6 46 -54
16 c-75 23 -76 22 -83 -36 -15 -121 -50 -236 -110 -363 -75 -157 -107 -202
-193 -277 -150 -131 -340 -190 -613 -192 -189 -1 -231 6 -340 56 -289 133
-484 370 -567 688 -24 92 -28 320 -8 425 82 437 435 770 876 824 96 13 236 5
307 -15z"/>
<path d="M1683 86 c3 -8 9 -31 13 -50 6 -35 34 -52 34 -21 0 26 -28 85 -41 85
-6 0 -9 -6 -6 -14z"/>
</g>
</svg>
