<?xml version="1.0" standalone="no"?>
<!DOCTYPE svg PUBLIC "-//W3C//DTD SVG 20010904//EN"
 "http://www.w3.org/TR/2001/REC-SVG-20010904/DTD/svg10.dtd">
<svg version="1.0" xmlns="http://www.w3.org/2000/svg"
 width="512.000000pt" height="512.000000pt" viewBox="0 0 512.000000 512.000000"
 preserveAspectRatio="xMidYMid meet">
<metadata>
Created by potrace 1.16, written by Peter Selinger 2001-2019
</metadata>
<g transform="translate(0.000000,512.000000) scale(0.100000,-0.100000)"
fill="#000000" stroke="none">
<path d="M2203 4743 c-18 -7 -16 -58 3 -74 18 -14 40 -5 58 25 9 14 6 21 -13
37 -24 20 -28 21 -48 12z m42 -38 c0 -28 -29 -25 -33 3 -3 19 0 23 15 20 10
-2 18 -12 18 -23z"/>
<path d="M2548 4739 c-21 -12 -24 -49 -6 -67 17 -17 55 -15 55 3 0 8 -9 13
-21 12 -15 -1 -21 4 -21 18 0 15 6 19 23 18 25 -3 30 12 6 21 -19 7 -15 8 -36
-5z"/>
<path d="M2927 4737 c-7 -19 4 -77 14 -71 5 3 7 10 4 15 -4 5 5 9 20 9 26 0
45 25 29 39 -17 16 -62 21 -67 8z m48 -17 c3 -5 -3 -10 -14 -10 -12 0 -21 5
-21 10 0 6 6 10 14 10 8 0 18 -4 21 -10z"/>
<path d="M2100 4706 c0 -19 5 -38 10 -41 6 -3 10 1 10 9 0 8 10 16 23 18 14 2
23 11 25 26 3 19 -1 22 -32 22 -34 0 -36 -2 -36 -34z m55 14 c3 -5 -3 -10 -14
-10 -12 0 -21 5 -21 10 0 6 6 10 14 10 8 0 18 -4 21 -10z"/>
<path d="M2280 4700 c0 -22 5 -40 10 -40 6 0 10 12 10 26 l0 27 21 -27 c29
-36 39 -33 39 14 0 22 -4 40 -10 40 -5 0 -10 -12 -10 -27 l-1 -28 -17 28 c-25
40 -42 35 -42 -13z"/>
<path d="M2380 4720 c-16 -31 4 -62 38 -58 35 4 46 48 11 48 -18 0 -19 -2 -9
-15 10 -12 10 -15 -3 -15 -20 0 -29 14 -21 35 5 12 14 15 30 11 14 -4 24 -2
24 4 0 19 -59 11 -70 -10z"/>
<path d="M2620 4700 c0 -22 5 -40 10 -40 6 0 10 7 10 15 0 8 7 15 15 15 8 0
15 -7 15 -15 0 -8 5 -15 10 -15 6 0 9 19 9 43 -1 23 -3 34 -6 25 -5 -22 -43
-24 -43 -3 0 8 -4 15 -10 15 -5 0 -10 -18 -10 -40z"/>
<path d="M2721 4709 c-15 -42 -14 -56 1 -41 16 16 45 15 51 0 2 -7 8 -10 12
-5 12 10 -22 77 -39 77 -8 0 -19 -14 -25 -31z m34 1 c3 -5 1 -10 -4 -10 -6 0
-11 5 -11 10 0 6 2 10 4 10 3 0 8 -4 11 -10z"/>
<path d="M2810 4700 c0 -22 5 -40 10 -40 6 0 10 10 10 22 0 21 1 21 14 3 13
-18 13 -18 24 1 10 18 11 18 21 -6 9 -23 10 -21 10 18 1 47 -22 60 -35 20 l-7
-23 -10 23 c-17 37 -37 27 -37 -18z"/>
<path d="M2383 4633 c115 -2 299 -2 410 0 111 1 18 2 -208 2 -225 0 -316 -1
-202 -2z"/>
<path d="M1150 4191 l-115 -6 94 -7 c119 -10 2276 -10 2362 -1 64 7 64 7 24
14 -45 9 -2188 8 -2365 0z"/>
<path d="M3773 4183 c53 -2 141 -2 195 0 53 1 9 3 -98 3 -107 0 -151 -2 -97
-3z"/>
<path d="M3324 4041 c-131 -36 -258 -111 -384 -228 -41 -38 -107 -90 -146
-115 -39 -25 -88 -66 -110 -92 -36 -44 -41 -46 -90 -46 -416 0 -814 -298 -962
-721 -67 -190 -80 -445 -32 -638 25 -103 93 -236 163 -322 112 -135 337 -302
337 -250 0 5 -40 44 -89 86 -176 150 -284 312 -348 522 -23 78 -26 105 -27
238 0 123 4 166 22 238 58 233 186 430 375 582 159 127 316 190 520 208 113
11 131 15 141 32 46 87 55 94 169 149 114 56 249 106 285 106 12 0 29 14 41
34 71 114 223 183 386 174 45 -3 95 -12 115 -22 19 -9 26 -13 15 -10 -43 14
-179 16 -234 4 -64 -14 -180 -71 -208 -102 -18 -21 -18 -21 17 -14 97 20 162
25 209 16 156 -29 278 -158 311 -327 23 -117 -29 -262 -139 -384 -54 -61 -166
-139 -197 -139 -11 1 -40 27 -72 69 -29 38 -90 109 -135 159 -83 91 -173 198
-214 254 -28 38 -29 79 -3 136 10 23 16 42 12 42 -4 0 -31 -22 -60 -50 -62
-59 -66 -87 -24 -146 46 -63 145 -158 209 -202 126 -86 263 -286 314 -461 14
-47 70 -116 90 -109 6 2 20 30 29 62 22 71 47 110 166 256 116 145 158 214
190 314 89 284 -13 544 -262 668 -86 42 -90 43 -198 45 -84 2 -128 -2 -182
-16z m440 -938 c-21 -27 -67 -81 -102 -122 -63 -72 -101 -138 -102 -173 0 -32
-18 -28 -36 10 -36 77 -21 130 48 167 68 36 166 105 197 139 39 42 37 30 -5
-21z"/>
<path d="M2473 3954 c-8 -20 8 -36 26 -25 15 10 8 41 -9 41 -6 0 -13 -7 -17
-16z"/>
<path d="M844 3695 c14 -250 10 -374 -17 -470 -60 -218 -87 -407 -87 -620 0
-194 39 -525 61 -525 19 0 19 28 -2 145 -26 154 -37 457 -20 605 16 141 44
276 91 448 22 78 40 154 40 167 0 26 -18 35 -24 13 -2 -7 -8 -29 -13 -48 -7
-25 -9 25 -9 167 1 158 -2 205 -13 215 -11 11 -12 -4 -7 -97z"/>
<path d="M4241 3323 c11 -43 36 -170 56 -283 36 -199 37 -213 37 -445 0 -211
-2 -252 -22 -342 -20 -94 -52 -195 -98 -315 -10 -26 -15 -50 -11 -54 11 -11
14 -4 58 111 87 230 121 479 101 728 -12 148 -70 495 -101 606 -25 94 -42 88
-20 -6z"/>
<path d="M3390 3300 c-42 -42 -34 -112 17 -145 32 -22 66 -13 92 24 33 46 36
82 11 114 -27 34 -89 38 -120 7z m92 -17 c24 -21 23 -58 -2 -83 -24 -24 -47
-25 -72 -3 -24 21 -23 58 2 83 24 24 47 25 72 3z"/>
<path d="M2341 3285 c-97 -18 -159 -38 -258 -86 -152 -73 -245 -185 -303 -367
-36 -110 -39 -150 -6 -69 47 114 106 200 210 302 162 160 293 216 516 218 84
1 103 3 70 8 -68 11 -146 9 -229 -6z"/>
<path d="M932 3135 c-42 -137 -53 -211 -59 -371 -9 -251 32 -438 147 -681 74
-155 254 -452 267 -440 2 2 -26 51 -62 108 -88 140 -217 402 -255 519 -91 281
-100 502 -34 798 29 131 27 170 -4 67z"/>
<path d="M2424 3180 c-74 -15 -192 -67 -257 -114 -172 -122 -264 -291 -274
-502 -6 -127 7 -225 41 -299 67 -146 257 -294 456 -357 62 -19 95 -23 195 -22
103 1 130 5 195 28 154 55 302 172 378 299 84 139 114 335 77 490 -51 211
-209 387 -421 467 -28 11 -28 10 11 -30 l40 -41 -65 30 c-122 57 -255 75 -376
51z m309 -60 c192 -60 379 -305 376 -494 l-1 -51 -13 73 c-29 159 -129 303
-253 364 -65 32 -70 33 -181 30 -172 -4 -262 -41 -359 -146 -40 -43 -92 -135
-92 -162 0 -6 6 -17 14 -23 11 -9 24 -5 61 18 60 38 186 91 217 91 37 0 68
-27 68 -59 0 -46 -94 -121 -192 -154 -16 -6 -18 -21 -18 -117 0 -103 -1 -110
-20 -110 -19 0 -20 7 -21 113 0 61 0 133 1 160 2 48 -8 59 -30 31 -34 -40 -66
-38 -117 8 l-22 20 -7 -37 c-33 -179 80 -382 264 -473 74 -36 79 -37 187 -37
108 0 113 1 186 37 211 104 303 316 232 533 -31 94 -105 190 -192 246 -25 16
-41 29 -35 29 34 0 159 -111 204 -181 168 -261 28 -614 -279 -703 -30 -9 -62
-16 -70 -15 -9 1 -5 4 9 8 15 5 -8 8 -60 8 -175 0 -309 68 -404 206 -61 89
-78 152 -87 331 -8 158 -8 158 18 210 32 63 142 175 203 206 123 64 286 79
413 40z m6 -91 c48 -17 32 -20 -19 -4 -25 7 -38 14 -29 14 9 1 30 -4 48 -10z
m91 -207 c0 -11 -14 -25 -35 -35 -31 -15 -35 -21 -35 -57 0 -46 6 -48 60 -20
22 11 46 20 55 20 23 0 31 -31 12 -45 -13 -9 -17 -35 -19 -131 -2 -98 -6 -119
-18 -119 -12 0 -16 21 -18 118 -1 64 -5 117 -8 117 -3 0 -18 -7 -34 -15 l-29
-15 -3 -112 c-3 -98 -5 -113 -20 -116 -15 -3 -18 4 -18 37 l0 41 -58 -45 c-70
-54 -114 -69 -159 -54 -76 25 -95 100 -40 153 19 17 44 48 56 68 40 67 121 98
167 63 10 -8 22 -15 26 -15 4 0 8 30 10 67 3 64 5 68 37 90 41 28 71 30 71 5z
m-816 -285 c60 -274 285 -454 541 -433 l70 5 -45 -20 c-148 -69 -335 -26 -469
108 -123 124 -199 349 -140 419 18 21 24 9 43 -79z"/>
<path d="M2422 2751 c-43 -21 -65 -38 -72 -56 -21 -54 -7 -58 72 -20 60 28
111 71 105 88 -7 22 -42 18 -105 -12z"/>
<path d="M2586 2629 c-14 -11 -33 -35 -42 -52 -9 -18 -30 -44 -47 -59 -31 -26
-31 -28 -17 -55 30 -55 94 -41 196 44 35 30 44 44 44 69 0 23 -6 34 -25 42
-14 6 -25 16 -25 22 0 18 -56 11 -84 -11z m64 -50 c0 -6 -4 -7 -10 -4 -5 3
-10 11 -10 16 0 6 5 7 10 4 6 -3 10 -11 10 -16z"/>
<path d="M4004 3044 c15 -38 56 -194 67 -254 20 -100 17 -397 -4 -503 -44
-221 -153 -466 -274 -614 -50 -61 -43 -72 9 -15 117 129 216 334 275 567 33
135 43 401 19 547 -18 112 -72 288 -88 288 -5 0 -7 -7 -4 -16z"/>
<path d="M3442 2655 c0 -16 2 -22 5 -12 2 9 2 23 0 30 -3 6 -5 -1 -5 -18z"/>
<path d="M3453 2535 c0 -38 2 -53 4 -32 2 20 2 52 0 70 -2 17 -4 1 -4 -38z"/>
<path d="M3459 2372 c-43 -28 -46 -33 -68 -114 -40 -151 -139 -318 -259 -435
-78 -76 -149 -124 -250 -169 -137 -61 -127 -51 -126 -125 2 -79 46 -188 122
-302 l53 -77 -346 0 c-274 0 -345 3 -339 13 5 6 28 39 52 72 93 124 182 353
166 422 -10 43 -31 61 -138 115 -142 74 -224 158 -335 345 -46 78 -88 140 -93
137 -16 -10 -8 -139 13 -202 55 -163 216 -332 394 -413 l68 -30 -7 -45 c-8
-61 -63 -176 -140 -294 -36 -54 -66 -107 -68 -117 -3 -17 20 -18 440 -21 l442
-2 -14 32 c-7 18 -39 73 -70 122 -30 49 -66 120 -78 158 -30 93 -22 107 97
167 117 60 170 97 249 176 85 85 147 173 197 280 44 93 92 263 87 308 l-3 28
-46 -29z"/>
<path d="M3277 2094 c-63 -131 -211 -265 -418 -378 -57 -30 -88 -60 -76 -72 7
-7 165 68 217 103 30 21 91 74 136 118 64 64 90 100 124 168 24 48 41 89 38
92 -2 3 -12 -11 -21 -31z"/>
<path d="M832 1885 c0 -16 2 -22 5 -12 2 9 2 23 0 30 -3 6 -5 -1 -5 -18z"/>
<path d="M842 1820 c0 -14 2 -19 5 -12 2 6 2 18 0 25 -3 6 -5 1 -5 -13z"/>
<path d="M867 1535 c3 -38 9 -88 14 -110 6 -29 7 -21 3 30 -3 39 -10 88 -14
110 -7 29 -7 21 -3 -30z"/>
<path d="M3280 1415 c-7 -8 -10 -22 -6 -30 7 -20 42 -19 50 1 8 22 8 22 -13
33 -14 8 -22 7 -31 -4z m30 -13 c0 -13 -12 -22 -22 -16 -10 6 -1 24 13 24 5 0
9 -4 9 -8z"/>
<path d="M1843 1325 c-3 -9 -3 -19 1 -22 3 -3 1 -12 -5 -19 -18 -22 -2 -46 28
-42 25 3 28 7 30 43 2 38 -8 55 -35 55 -7 0 -15 -7 -19 -15z m37 -16 c0 -5 -7
-9 -15 -9 -15 0 -20 12 -9 23 8 8 24 -1 24 -14z m3 -44 c1 -5 -6 -11 -15 -13
-11 -2 -18 3 -18 13 0 17 30 18 33 0z"/>
<path d="M3224 1329 c-9 -15 12 -33 30 -26 9 4 16 13 16 22 0 17 -35 21 -46 4z
m36 -9 c0 -5 -4 -10 -10 -10 -5 0 -10 5 -10 10 0 6 5 10 10 10 6 0 10 -4 10
-10z"/>
<path d="M1700 1246 c0 -29 28 -42 48 -22 20 20 8 46 -23 46 -20 0 -25 -5 -25
-24z m38 -4 c6 -18 -15 -14 -22 4 -4 10 -1 14 6 12 6 -2 14 -10 16 -16z"/>
<path d="M2033 1108 c-11 -6 -40 -46 -64 -89 -41 -77 -43 -79 -80 -79 -54 0
-67 -7 -79 -46 l-12 -34 -289 0 c-186 0 -289 -4 -289 -10 0 -6 98 -10 275 -10
177 0 275 -4 275 -10 0 -6 -85 -10 -235 -10 l-235 0 -12 -25 c-26 -58 -108
-55 1308 -55 1291 0 1293 0 1304 20 6 12 8 30 5 40 -6 19 -17 20 -256 20 -164
0 -248 3 -244 10 4 6 110 10 286 10 179 0 279 4 279 10 0 6 -107 10 -300 10
l-300 0 -17 38 -18 37 -79 5 -79 5 -34 65 c-19 36 -41 75 -49 88 l-14 22 -513
-1 c-334 0 -520 -4 -534 -11z m382 -80 l150 -2 -160 -6 c-88 -4 -192 -8 -232
-9 -62 -1 -76 -5 -103 -27 -23 -20 -30 -34 -28 -53 l3 -26 190 -5 c135 -4 167
-7 110 -10 -44 -3 129 -7 385 -10 l465 -5 -496 -3 c-273 -1 -550 1 -617 4
l-121 7 38 59 c67 106 60 102 170 94 53 -3 164 -7 246 -8z m458 -225 c-160 -2
-426 -2 -590 0 -164 1 -32 2 292 2 325 0 459 -1 298 -2z"/>
<path d="M2237 463 c-4 -3 -7 -25 -7 -47 1 -34 3 -38 13 -25 7 9 19 18 27 22
12 4 11 6 -2 6 -10 1 -18 8 -18 16 0 8 8 15 18 15 14 0 15 2 2 10 -18 12 -24
12 -33 3z"/>
<path d="M2318 463 c-23 -6 -32 -37 -18 -63 20 -37 70 -19 70 27 0 24 -25 42
-52 36z m29 -24 c14 -14 6 -39 -12 -39 -18 0 -28 17 -21 35 6 18 18 19 33 4z"/>
<path d="M2776 463 c-10 -10 -7 -71 4 -78 6 -4 10 6 10 22 l1 28 17 -27 c23
-39 32 -35 32 15 0 29 -3 38 -9 27 -6 -8 -7 -19 -5 -25 3 -5 -6 2 -19 17 -14
15 -28 24 -31 21z"/>
<path d="M2867 449 c-8 -11 -13 -29 -10 -39 6 -21 36 -35 53 -25 17 11 11 22
-12 21 -17 -1 -23 5 -23 19 0 16 6 20 28 18 24 -2 27 0 17 13 -17 20 -36 18
-53 -7z"/>
<path d="M2390 436 c0 -13 -3 -31 -6 -40 -3 -9 -1 -16 5 -16 6 0 11 12 11 28
l0 27 25 -30 c28 -35 33 -19 7 22 -22 36 -42 40 -42 9z"/>
<path d="M2460 420 c0 -22 5 -40 10 -40 6 0 10 18 10 40 0 22 -4 40 -10 40 -5
0 -10 -18 -10 -40z"/>
<path d="M2512 448 c-30 -30 -2 -72 45 -66 36 4 46 38 11 38 -19 0 -20 -2 -8
-11 12 -8 10 -9 -10 -7 -17 2 -25 9 -25 23 0 17 6 20 33 17 21 -1 31 2 27 8
-9 14 -58 13 -73 -2z"/>
<path d="M2610 420 c0 -38 20 -60 20 -22 1 16 1 16 14 0 17 -23 25 -23 19 1
-3 10 0 22 6 25 25 16 11 36 -24 36 -34 0 -35 -1 -35 -40z m50 21 c0 -5 -7
-11 -15 -15 -9 -3 -15 0 -15 9 0 8 7 15 15 15 8 0 15 -4 15 -9z"/>
<path d="M2700 424 c-7 -19 -9 -38 -5 -42 4 -4 10 -1 12 6 3 6 11 12 18 12 7
0 16 -6 18 -12 8 -18 8 23 1 50 -9 33 -31 27 -44 -14z m30 -4 c0 -5 -5 -10
-11 -10 -5 0 -7 5 -4 10 3 6 8 10 11 10 2 0 4 -4 4 -10z"/>
<path d="M2433 343 c76 -2 198 -2 270 0 73 1 11 3 -138 3 -148 0 -208 -2 -132
-3z"/>
</g>
</svg>